<svg width="18" height="13" viewBox="0 0 18 13" fill="none" color="inherit" xmlns="http://www.w3.org/2000/svg">
  <g clip-path="url(#clip0_173_1993)">
    <path
      d="M11.8845 10.5249H13.0114L10.999 8.51245L9.87203 9.63942L11.8845 11.6519V10.5249ZM7.05461 10.5249H5.92764L7.94009 8.51245L9.06705 9.63942L7.05461 11.6519V10.5249Z"
      fill="currentColor" />
    <path
      d="M4.23718 2.87759H14.7019V4.48755H4.23718V2.87759ZM9.46953 6.0975C8.34256 6.0975 7.45709 6.98298 7.45709 8.10994C7.45709 9.23691 8.34256 10.1224 9.46953 10.1224C10.5965 10.1224 11.482 9.23691 11.482 8.10994C11.482 6.98298 10.5965 6.0975 9.46953 6.0975ZM9.46953 9.31741C8.7853 9.31741 8.26207 8.79417 8.26207 8.10994C8.26207 7.42571 8.7853 6.90248 9.46953 6.90248C10.1538 6.90248 10.677 7.42571 10.677 8.10994C10.677 8.79417 10.1538 9.31741 9.46953 9.31741Z"
      fill="currentColor" />
    <path
      d="M1.01727 0.0601807V12.9398H17.9218V0.0601807H1.01727ZM17.1168 10.9274C16.4326 10.9274 15.9093 11.4506 15.9093 12.1348H3.02971C3.02971 11.4506 2.50648 10.9274 1.82225 10.9274V2.07262C2.50648 2.07262 3.02971 1.54939 3.02971 0.865158H15.9093C15.9093 1.54939 16.4326 2.07262 17.1168 2.07262V10.9274Z"
      fill="currentColor" />
  </g>
  <defs>
    <clipPath id="clip0_173_1993">
      <rect x="0.983429" width="16.9722" height="13" rx="2" fill="white" />
    </clipPath>
  </defs>
</svg>