<svg width="14" height="13" viewBox="0 0 14 13" fill="none" color="inherit" xmlns="http://www.w3.org/2000/svg">
  <g clip-path="url(#clip0_173_3116)">
    <path
      d="M13.1432 8.9375C12.6945 8.9375 12.3307 9.30127 12.3307 9.75V10.5625C12.3307 11.0112 11.9669 11.375 11.5182 11.375H3.39319C2.94446 11.375 2.58069 11.0112 2.58069 10.5625V2.4375C2.58069 1.98877 2.94446 1.625 3.39319 1.625H4.20569C4.65442 1.625 5.01819 1.26123 5.01819 0.8125C5.01819 0.363771 4.65442 0 4.20569 0H3.39319C2.04699 0 0.955688 1.0913 0.955688 2.4375V10.5625C0.955688 11.9087 2.04699 13 3.39319 13H11.5182C12.8644 13 13.9557 11.9087 13.9557 10.5625V9.75C13.9557 9.30127 13.5919 8.9375 13.1432 8.9375Z"
      fill="currentColor" />
    <path
      d="M13.9541 0.654063C13.9541 0.629687 13.9541 0.605313 13.9338 0.585C13.9271 0.55751 13.919 0.53039 13.9094 0.50375C13.8974 0.47593 13.8838 0.448804 13.8688 0.4225C13.8688 0.4225 13.8688 0.381875 13.8363 0.361562C13.7772 0.273176 13.7012 0.197261 13.6129 0.138125L13.5479 0.101562L13.4707 0.0609375L13.3854 0.0365625H13.3163C13.2596 0.0180001 13.201 0.0057387 13.1416 0L8.2666 0C7.81788 0 7.4541 0.363771 7.4541 0.8125C7.4541 1.26123 7.81788 1.625 8.2666 1.625H11.1794L6.47504 6.33344C6.15757 6.65091 6.15757 7.16565 6.47504 7.48313C6.79251 7.8006 7.30726 7.8006 7.62473 7.48313L12.3291 2.77469V5.6875C12.3291 6.13623 12.6929 6.5 13.1416 6.5C13.5903 6.5 13.9541 6.13623 13.9541 5.6875V0.8125C13.9593 0.759814 13.9593 0.706748 13.9541 0.654063Z"
      fill="currentColor" />
  </g>
  <defs>
    <clipPath id="clip0_173_3116">
      <rect width="13" height="13" fill="white" transform="translate(0.955688)" />
    </clipPath>
  </defs>
</svg>