<svg width="14" height="13" viewBox="0 0 14 13" fill="none" color="inherit" xmlns="http://www.w3.org/2000/svg">
  <g clip-path="url(#clip0_154_2632)">
    <path
      d="M12.0796 1.90379C10.8519 0.676102 9.21964 0 7.48343 0C5.74722 0 4.11493 0.676102 2.88722 1.90379C1.65951 3.13148 0.983429 4.76379 0.983429 6.5C0.983429 8.23621 1.65953 9.8685 2.88722 11.0962C4.11491 12.3239 5.74722 13 7.48343 13C9.21964 13 10.8519 12.3239 12.0796 11.0962C13.3074 9.86852 13.9834 8.23621 13.9834 6.5C13.9834 4.76379 13.3073 3.1315 12.0796 1.90379ZM12.0255 9.91908C11.6368 9.656 11.2299 9.42868 10.808 9.23889C10.9943 8.51228 11.105 7.72337 11.1326 6.90625H13.1563C13.0764 8.03197 12.6676 9.06819 12.0255 9.91908ZM1.8106 6.90625H3.83429C3.86191 7.7234 3.97257 8.51231 4.15888 9.23889C3.73699 9.42868 3.33008 9.65598 2.94135 9.91908C2.29922 9.06819 1.89043 8.03197 1.8106 6.90625ZM2.94125 3.08105C3.32998 3.34415 3.73689 3.57147 4.15883 3.76127C3.97251 4.48782 3.86189 5.27665 3.83426 6.09375H1.8106C1.89043 4.96808 2.2992 3.93194 2.94125 3.08105ZM10.14 1.99989C9.99111 1.7208 9.83026 1.46895 9.6592 1.24546C10.3465 1.53111 10.9661 1.94771 11.4867 2.46413C11.1916 2.65807 10.8849 2.82897 10.5687 2.97664C10.4447 2.62971 10.3014 2.3026 10.14 1.99989ZM9.81078 3.27968C9.0691 3.52831 8.28636 3.65625 7.48343 3.65625C6.6805 3.65625 5.89776 3.52831 5.15607 3.27968C5.67564 1.8006 6.5341 0.8125 7.48343 0.8125C8.43276 0.8125 9.29122 1.8006 9.81078 3.27968ZM4.64737 6.09375C4.67418 5.37413 4.77141 4.68658 4.92507 4.05955C5.74102 4.32981 6.60131 4.46875 7.48343 4.46875C8.36555 4.46875 9.22584 4.32981 10.0418 4.05955C10.1955 4.68658 10.2927 5.3741 10.3195 6.09375H4.64737ZM10.3195 6.90625C10.2926 7.62592 10.1955 8.3135 10.0418 8.94055C9.22573 8.67024 8.36547 8.53125 7.48343 8.53125C6.60138 8.53125 5.74112 8.67024 4.92509 8.94055C4.77141 8.3135 4.67418 7.62592 4.64737 6.90625H10.3195ZM4.82688 1.99989C4.66545 2.3026 4.5222 2.62971 4.39811 2.97662C4.08195 2.82897 3.77528 2.65804 3.48011 2.46411C4.0007 1.94766 4.62033 1.53108 5.30766 1.24544C5.1366 1.46895 4.97572 1.7208 4.82688 1.99989ZM4.39814 10.0235C4.5222 10.3704 4.66545 10.6975 4.82686 11.0001C4.97572 11.2792 5.13657 11.5311 5.30763 11.7545C4.62038 11.4689 4.0008 11.0524 3.48024 10.536C3.77541 10.3421 4.08202 10.1712 4.39814 10.0235ZM5.15612 9.72042C5.89786 9.47174 6.68058 9.34375 7.48343 9.34375C8.28628 9.34375 9.069 9.47174 9.81073 9.72042C9.29117 11.1994 8.43273 12.1875 7.48343 12.1875C6.53412 12.1875 5.67569 11.1994 5.15612 9.72042ZM10.14 11.0001C10.3014 10.6975 10.4446 10.3704 10.5687 10.0235C10.8848 10.1712 11.1915 10.3421 11.4866 10.536C10.966 11.0524 10.3464 11.4689 9.6592 11.7545C9.83026 11.5311 9.99113 11.2792 10.14 11.0001ZM11.1326 6.09375C11.1049 5.27668 10.9943 4.48782 10.808 3.76127C11.2299 3.57147 11.6369 3.34415 12.0256 3.08105C12.6676 3.93192 13.0764 4.96806 13.1562 6.09375H11.1326Z"
      fill="currentColor" />
  </g>
  <defs>
    <clipPath id="clip0_154_2632">
      <rect width="13" height="13" fill="white" transform="translate(0.983429)" />
    </clipPath>
  </defs>
</svg>