<svg width="14" height="13" viewBox="0 0 14 13" fill="none" color="inherit" xmlns="http://www.w3.org/2000/svg">
  <path
    d="M1.69557 3.11754C1.68077 2.8418 1.44525 2.63027 1.16951 2.64507C0.893777 2.65987 0.682252 2.8954 0.697051 3.17113L1.69557 3.11754ZM2.33945 0.561899C2.14928 0.762111 2.15742 1.07857 2.35763 1.26874C2.55784 1.45891 2.87431 1.45077 3.06448 1.25056L2.33945 0.561899ZM6.30356 11.7082C6.53735 11.8552 6.846 11.7848 6.99293 11.551C7.13986 11.3172 7.0694 11.0085 6.8356 10.8616L6.30356 11.7082ZM9.26938 11.8723C8.99912 11.8157 8.73413 11.989 8.67753 12.2592C8.62093 12.5295 8.79413 12.7945 9.06445 12.8511L9.26938 11.8723ZM9.62376 8.86262L9.92735 8.54297L9.20231 7.85433L8.89872 8.17398L9.62376 8.86262ZM10.9264 8.40837L12.2001 9.14148L12.6989 8.27484L11.4253 7.54174L10.9264 8.40837ZM12.4459 10.6613L11.4989 11.6584L12.2239 12.347L13.1709 11.3501L12.4459 10.6613ZM4.76702 9.13928C2.18303 6.41878 1.7496 4.12405 1.69557 3.11754L0.697051 3.17113C0.763215 4.4039 1.28665 6.9271 4.04199 9.82792L4.76702 9.13928ZM5.68388 4.71471L5.87511 4.51341L5.15005 3.82475L4.95884 4.02605L5.68388 4.71471ZM6.0253 2.00717L5.18466 0.818222L4.36817 1.39551L5.20879 2.58445L6.0253 2.00717ZM5.32136 4.37038C4.95884 4.02605 4.95838 4.02654 4.95792 4.02702C4.95776 4.0272 4.9573 4.02769 4.95698 4.02802C4.95634 4.0287 4.9557 4.02939 4.95504 4.0301C4.95373 4.03151 4.95237 4.03298 4.95098 4.03452C4.94818 4.0376 4.94521 4.04092 4.94209 4.04451C4.93586 4.05168 4.92901 4.05988 4.92168 4.06914C4.90703 4.08766 4.89045 4.11041 4.87305 4.13759C4.83818 4.1921 4.80036 4.26387 4.76833 4.35388C4.70319 4.53692 4.6677 4.77931 4.71205 5.08202C4.79919 5.67675 5.18888 6.47651 6.2071 7.54847L6.93213 6.85983C5.98037 5.8578 5.74595 5.2407 5.70145 4.93705C5.67999 4.79055 5.7018 4.71336 5.71042 4.68912C5.71527 4.6755 5.71844 4.67171 5.71534 4.67656C5.71384 4.67891 5.71083 4.68332 5.7058 4.6897C5.70327 4.69288 5.70024 4.69656 5.69661 4.70074C5.6948 4.70282 5.69284 4.70502 5.69072 4.70736C5.68966 4.70852 5.68856 4.70972 5.68742 4.71094C5.68685 4.71156 5.68627 4.71218 5.68568 4.7128C5.68538 4.71312 5.68493 4.7136 5.68478 4.71375C5.68433 4.71423 5.68388 4.71471 5.32136 4.37038ZM6.2071 7.54847C7.22226 8.6173 7.98903 9.03748 8.574 9.13248C8.87412 9.18121 9.11712 9.14228 9.30111 9.06975C9.39104 9.03428 9.46223 8.99261 9.51563 8.95475C9.54223 8.93582 9.56443 8.91788 9.58236 8.90222C9.5913 8.89435 9.59923 8.88702 9.6061 8.88035C9.60956 8.87709 9.6127 8.87389 9.61563 8.87095C9.61709 8.86949 9.61856 8.86802 9.61989 8.86662C9.62056 8.86595 9.62123 8.86529 9.62183 8.86462C9.62216 8.86429 9.62263 8.86375 9.62283 8.86362C9.62329 8.86309 9.62376 8.86262 9.26124 8.5183C8.89872 8.17398 8.89919 8.17351 8.89959 8.17305C8.89979 8.17285 8.90019 8.17238 8.90052 8.17205C8.90112 8.17145 8.90172 8.17085 8.90226 8.17025C8.90346 8.16905 8.90459 8.16785 8.90572 8.16671C8.90792 8.16451 8.91006 8.16238 8.91206 8.16045C8.91612 8.15658 8.91972 8.15325 8.92292 8.15045C8.92932 8.14485 8.93406 8.14125 8.93712 8.13912C8.94332 8.13465 8.94272 8.13618 8.93419 8.13951C8.92132 8.14458 8.86079 8.16598 8.73426 8.14545C8.46594 8.10185 7.88683 7.86499 6.93213 6.85983L6.2071 7.54847ZM5.18466 0.818222C4.50896 -0.137461 3.15687 -0.298694 2.33945 0.561899L3.06448 1.25056C3.41302 0.883606 4.02661 0.912431 4.36817 1.39551L5.18466 0.818222ZM11.4989 11.6584C11.3128 11.8542 11.1182 11.9592 10.929 11.9778L11.0273 12.973C11.5253 12.9238 11.9283 12.6582 12.2239 12.347L11.4989 11.6584ZM5.87511 4.51341C6.52008 3.83432 6.56575 2.77158 6.0253 2.00717L5.20879 2.58445C5.49022 2.98248 5.44706 3.51205 5.15005 3.82475L5.87511 4.51341ZM12.2001 9.14148C12.7473 9.45646 12.8544 10.2313 12.4459 10.6613L13.1709 11.3501C14.0409 10.4342 13.7875 8.90142 12.6989 8.27484L12.2001 9.14148ZM9.92735 8.54297C10.1843 8.27244 10.5847 8.21165 10.9264 8.40837L11.4253 7.54174C10.693 7.12022 9.78482 7.24108 9.20231 7.85433L9.92735 8.54297ZM6.8356 10.8616C6.17983 10.4495 5.48185 9.89185 4.76702 9.13928L4.04199 9.82792C4.81131 10.6379 5.5735 11.2495 6.30356 11.7082L6.8356 10.8616ZM10.929 11.9778C10.5647 12.0138 9.98815 12.0228 9.26938 11.8723L9.06445 12.8511C9.89675 13.0253 10.5768 13.0175 11.0273 12.973L10.929 11.9778Z"
    fill="currentColor" />
</svg>