<svg width="13" height="13" viewBox="0 0 13 13" fill="none" color="inherit" xmlns="http://www.w3.org/2000/svg">
  <path
    d="M6.56946 7.59688C6.37405 7.68666 6.15996 7.80366 5.73137 8.03888C5.56887 8.13029 5.39905 8.2217 5.24102 8.30782C5.23005 8.29685 5.21868 8.28304 5.20771 8.27166C4.35987 7.36573 2.79174 6.72588 2.85837 5.50916C2.88315 5.06595 3.03549 3.90245 5.8699 2.48951C8.20259 1.33982 10.0587 1.65832 10.3793 2.36479C10.84 3.37188 9.38437 5.24591 6.9753 5.5177C6.70868 5.57178 6.43331 5.56524 6.16955 5.49858C5.90578 5.43192 5.66038 5.30684 5.45146 5.13257C5.3239 4.99404 5.3048 4.98591 5.25768 5.01354C5.18009 5.05416 5.23005 5.1797 5.25768 5.2516C5.34957 5.41798 5.47389 5.56424 5.62329 5.68175C5.77268 5.79926 5.94412 5.88562 6.12746 5.93573C7.07549 6.14064 8.06393 6.04273 8.95333 5.65582C10.4134 5.09073 11.5533 3.51976 11.2194 2.2027C10.8842 0.867352 8.66774 0.426977 6.57068 1.17204C5.25738 1.61461 4.04402 2.31129 2.99974 3.22238C1.84437 4.30301 1.66155 5.24226 1.7363 5.63551C2.00524 7.03179 3.93005 7.94057 4.70193 8.61373C4.6613 8.63607 4.62718 8.65435 4.59671 8.67182C4.21158 8.86316 2.7434 9.63057 2.37737 10.4423C1.96177 11.362 2.44399 12.0214 2.76249 12.1099C3.24247 12.2249 3.74637 12.1871 4.20383 12.0018C4.66129 11.8165 5.04946 11.493 5.31415 11.0764C5.53892 10.731 5.67694 10.3364 5.71647 9.92612C5.75601 9.51589 5.6959 9.10218 5.54124 8.72016C5.63249 8.64738 5.7298 8.58255 5.83212 8.52638C6.02874 8.4102 6.21602 8.29563 6.38218 8.20707C6.95108 7.94059 7.57193 7.80338 8.20015 7.80529C9.51883 7.96048 9.77924 8.78313 9.72927 9.12966C9.7059 9.25261 9.65646 9.36913 9.58428 9.47136C9.5121 9.5736 9.41886 9.6592 9.31083 9.72238C9.21943 9.78048 9.18896 9.79998 9.19708 9.84141C9.20805 9.90235 9.25233 9.89951 9.32993 9.88854C9.52805 9.82592 9.7026 9.70484 9.83065 9.54119C9.95869 9.37755 10.0342 9.179 10.0474 8.97163C10.088 8.15913 9.31327 7.26782 7.94177 7.27595C7.5311 7.27665 7.12454 7.35766 6.74496 7.51441C6.68402 7.5396 6.62485 7.56669 6.56743 7.59566L6.56946 7.59688ZM4.6093 10.7815C4.17137 11.258 3.56199 11.438 3.29874 11.2856C3.01437 11.1231 3.1269 10.4183 3.66437 9.91413C3.98269 9.62732 4.32674 9.37044 4.69218 9.14673C4.75596 9.1061 4.85021 9.05248 4.96355 8.98423C4.98305 8.97326 4.99402 8.96757 4.99402 8.96757L5.06065 8.92695C5.1565 9.24833 5.16523 9.58942 5.08592 9.91528C5.00661 10.2411 4.84213 10.5401 4.6093 10.7815Z"
    fill="currentColor" />
</svg>