<svg width="13" height="13" viewBox="0 0 13 13" fill="none" color="inherit" xmlns="http://www.w3.org/2000/svg">
  <rect width="13" height="13" rx="2" fill="currentColor" />
  <path
    d="M10 8.86557C9.89812 8.91301 9.78566 8.9129 9.68384 8.86528C9.58202 8.81766 9.49788 8.72581 9.44729 8.60706L8.44104 6.89405L8.29521 6.65457L7.12767 8.60921C7.08012 8.72298 7.00055 8.81153 6.90381 8.85832C6.80708 8.9051 6.69982 8.90691 6.60209 8.86342L8.1065 6.37882L6.70709 4.13443C6.80771 4.08979 6.91775 4.0892 7.01869 4.13275C7.11963 4.17631 7.20529 4.26135 7.26125 4.37355L8.30425 6.10774L9.35308 4.38073C9.401 4.26899 9.4806 4.18282 9.57674 4.1386C9.67289 4.09438 9.77889 4.0952 9.87458 4.14089L9.3315 5.02809L8.59592 6.20684C8.57549 6.22927 8.55914 6.25676 8.54795 6.28752C8.53676 6.31827 8.53097 6.35159 8.53097 6.38528C8.53097 6.41898 8.53676 6.4523 8.54795 6.48305C8.55914 6.51381 8.57549 6.5413 8.59592 6.56373L9.99708 8.86593L10 8.86557ZM3.00059 6.34794L3.12309 5.60292C3.45967 4.12976 4.83167 3.51687 5.7755 4.42884C6.32821 4.96346 6.46617 5.72033 6.43904 6.57342H3.3255C3.27505 8.09686 4.16813 9.01673 5.31 8.54674C5.49511 8.46472 5.6608 8.32745 5.79223 8.14723C5.92366 7.96702 6.01672 7.74949 6.06309 7.51412C6.12346 7.275 6.22292 7.23407 6.4055 7.30301C6.37508 7.59469 6.29132 7.87408 6.16052 8.12016C6.02973 8.36625 5.85531 8.57262 5.65038 8.72375C5.31187 8.95168 4.92349 9.04202 4.54077 8.98186C4.15804 8.92169 3.80057 8.7141 3.51946 8.38876C3.24151 8.00364 3.07353 7.51717 3.04113 7.00356C3.04113 6.91919 3.0178 6.8402 3.00205 6.76444C3.00063 6.62573 2.99994 6.48702 3 6.3483L3.00059 6.34794ZM3.3293 6.24526H6.14504C6.12754 5.14083 5.56142 4.35739 4.80629 4.35021C3.96571 4.33585 3.3643 5.10206 3.32725 6.24023L3.3293 6.24526Z"
    fill="white" />
</svg>