<svg width="14" height="13" viewBox="0 0 14 13" fill="none" color="inherit" xmlns="http://www.w3.org/2000/svg">
  <g clip-path="url(#clip0_43_305)">
    <path
      d="M7.35715 0C3.76691 0 0.857147 2.90977 0.857147 6.5C0.857147 10.0902 3.76691 13 7.35715 13C10.9474 13 13.8571 10.0902 13.8571 6.5C13.8571 2.90977 10.9474 0 7.35715 0ZM11.4146 10.5549C10.8864 11.083 10.2745 11.4969 9.59152 11.7838C8.88566 12.0834 8.1341 12.2332 7.35715 12.2332C6.58273 12.2332 5.83117 12.0809 5.12277 11.7838C4.43976 11.4943 3.82531 11.0805 3.29973 10.5549C2.7716 10.0268 2.35773 9.41484 2.07082 8.73184C1.77121 8.02598 1.61887 7.27441 1.61887 6.5C1.61887 5.72559 1.77121 4.97402 2.06828 4.26562C2.35773 3.58262 2.7716 2.96816 3.29719 2.44258C3.82785 1.91445 4.43976 1.50059 5.12277 1.21113C5.83117 0.914062 6.58273 0.761719 7.35715 0.761719C8.13156 0.761719 8.88312 0.914062 9.59152 1.21113C10.2745 1.50059 10.889 1.91445 11.4146 2.44004C11.9427 2.96816 12.3566 3.58008 12.6435 4.26309C12.9431 4.96895 13.0929 5.72051 13.0929 6.49746C13.0929 7.27187 12.9405 8.02344 12.6435 8.73184C12.354 9.41484 11.9402 10.0293 11.4146 10.5549Z"
      fill="currentColor" />
    <path d="M5.53918 5.16446H4.27219V9.21934H5.53918V5.16446Z" fill="currentColor" />
    <path
      d="M4.87903 3.25C4.41184 3.25 4.10461 3.55215 4.10461 3.95332C4.10461 4.34688 4.40168 4.65664 4.86125 4.65664H4.87141C5.34875 4.65664 5.64583 4.34434 5.64329 3.95332C5.63313 3.55215 5.34622 3.25 4.87903 3.25Z"
      fill="currentColor" />
    <path
      d="M8.99993 5.12637C8.27376 5.12637 7.81927 5.52247 7.73548 5.80176V5.16446H6.31107C6.32884 5.50215 6.31107 9.21934 6.31107 9.21934H7.73548V7.02813C7.73548 6.90372 7.7304 6.78184 7.76595 6.69551C7.86243 6.45176 8.07317 6.19786 8.4515 6.19786C8.94661 6.19786 9.17005 6.57364 9.17005 7.12208V9.21934H10.6072V6.96465C10.6072 5.71036 9.9013 5.12637 8.99993 5.12637Z"
      fill="currentColor" />
  </g>
  <defs>
    <clipPath id="clip0_43_305">
      <rect width="13" height="13" fill="white" transform="translate(0.857147)" />
    </clipPath>
  </defs>
</svg>