<svg width="14" height="13" viewBox="0 0 14 13" fill="none" color="inherit" xmlns="http://www.w3.org/2000/svg">
  <g clip-path="url(#clip0_41_70)">
    <path fill-rule="evenodd" clip-rule="evenodd"
      d="M7.35715 0C10.9471 0 13.8571 2.98345 13.8571 6.6644C13.8571 9.60825 11.9968 12.1056 9.4157 12.9876C9.08615 13.0533 8.96915 12.8452 8.96915 12.6677C8.96915 12.448 8.97694 11.7304 8.97694 10.8386C8.97694 10.2172 8.76895 9.81166 8.5356 9.60496C9.98315 9.43986 11.5041 8.87625 11.5041 6.31655C11.5041 5.58855 11.2519 4.99448 10.8346 4.52778C10.9022 4.35943 11.1252 3.68157 10.7709 2.76377C10.7709 2.76377 10.2262 2.58519 8.9854 3.44709C8.46604 3.29954 7.90965 3.22531 7.35715 3.22271C6.80465 3.22531 6.2489 3.29954 5.7302 3.44709C4.48805 2.58519 3.94205 2.76377 3.94205 2.76377C3.5891 3.68157 3.81205 4.35943 3.879 4.52778C3.46365 4.99448 3.2095 5.58855 3.2095 6.31655C3.2095 8.86975 4.72725 9.442 6.1709 9.61035C5.985 9.77675 5.81665 10.0703 5.75815 10.5012C5.38765 10.6715 4.44645 10.9663 3.86665 9.94773C3.86665 9.94773 3.5228 9.3074 2.8702 9.2606C2.8702 9.2606 2.23645 9.25218 2.826 9.66558C2.826 9.66558 3.25175 9.87033 3.5475 10.6406C3.5475 10.6406 3.92905 11.8301 5.73735 11.4271C5.7406 11.9841 5.74645 12.5091 5.74645 12.6677C5.74645 12.8439 5.62684 13.05 5.3025 12.9883C2.7194 12.1075 0.857147 9.6089 0.857147 6.6644C0.857147 2.98345 3.76785 0 7.35715 0Z"
      fill="currentColor" />
  </g>
  <defs>
    <clipPath id="clip0_41_70">
      <rect width="13" height="13" fill="white" transform="translate(0.857147)" />
    </clipPath>
  </defs>
</svg>