<svg width="14" height="13" viewBox="0 0 14 13" fill="none" color="inherit" xmlns="http://www.w3.org/2000/svg">
  <g clip-path="url(#clip0_166_1728)">
    <path
      d="M7.48347 2.16666C6.5943 2.16666 5.82985 2.40665 5.22979 2.92098C4.63405 3.43161 4.24433 4.17497 4.02814 5.10152C3.98095 5.30373 4.08385 5.51099 4.27345 5.59566C4.46305 5.68032 4.68606 5.61859 4.80513 5.44848C5.07955 5.05647 5.35353 4.82092 5.61679 4.70004C5.87175 4.58297 6.14657 4.55925 6.46135 4.64356C6.77902 4.72865 7.02493 4.97785 7.41099 5.39773L7.42346 5.4113C7.71448 5.72783 8.06949 6.11398 8.55504 6.41357C9.05889 6.72444 9.68588 6.93331 10.5168 6.93331C11.406 6.93331 12.1704 6.69332 12.7705 6.17899C13.3662 5.66836 13.7559 4.925 13.9722 3.99845C14.0193 3.79624 13.9164 3.58898 13.7268 3.50431C13.5373 3.41965 13.3142 3.48137 13.1951 3.65148C12.9207 4.0435 12.6468 4.27904 12.3835 4.39994C12.1285 4.517 11.8537 4.54073 11.5389 4.45641C11.2213 4.37132 10.9753 4.12212 10.5893 3.70223L10.5768 3.68866C10.2858 3.37213 9.9308 2.98599 9.44522 2.68641C8.94139 2.37553 8.31441 2.16666 7.48347 2.16666Z"
      fill="currentColor" />
    <path
      d="M4.45015 6.06665C3.56097 6.06665 2.79652 6.30664 2.19647 6.82097C1.60073 7.3316 1.21101 8.07496 0.994814 9.00154C0.947631 9.20373 1.05052 9.41095 1.24012 9.49563C1.42972 9.5803 1.65273 9.51859 1.77181 9.34847C2.04622 8.95647 2.32021 8.72091 2.58347 8.60003C2.83842 8.48296 3.11324 8.45924 3.42803 8.54356C3.74569 8.62865 3.9916 8.87787 4.37767 9.29777L4.39014 9.31129C4.68115 9.62779 5.03617 10.014 5.52172 10.3136C6.02557 10.6245 6.65254 10.8333 7.48348 10.8333C8.37265 10.8333 9.1371 10.5933 9.7372 10.079C10.3329 9.56834 10.7226 8.825 10.9388 7.89845C10.986 7.69623 10.8831 7.48897 10.6935 7.4043C10.5039 7.31963 10.2809 7.38137 10.1618 7.55148C9.88739 7.9435 9.61342 8.17904 9.35015 8.29992C9.0952 8.41699 8.82038 8.44072 8.50559 8.3564C8.18793 8.27131 7.94203 8.0221 7.55596 7.60223L7.54348 7.58866C7.25247 7.27212 6.89746 6.88598 6.4119 6.58639C5.90806 6.27553 5.28108 6.06665 4.45015 6.06665Z"
      fill="currentColor" />
  </g>
  <defs>
    <clipPath id="clip0_166_1728">
      <rect width="13" height="13" fill="white" transform="translate(0.983429)" />
    </clipPath>
  </defs>
</svg>