<svg width="13" height="13" viewBox="0 0 13 13" fill="none" color="inherit" xmlns="http://www.w3.org/2000/svg">
  <path
    d="M9.24192 5.15558C8.5578 2.14392 6.94417 1.15429 6.77084 0.775667C6.62892 0.554667 6.49567 0.299542 6.38571 0.0325L6.3738 0C6.3738 0.0102917 6.3738 0.0167917 6.37109 0.0265417V0.0335833V0.0547083V0.0628333V0.0769167V0.091V0.0975C6.37109 0.0975 6.37109 0.102375 6.37109 0.104542V0.104V0.115375C6.37109 0.117 6.37163 0.119167 6.37163 0.121333C6.37163 0.1235 6.37163 0.125125 6.37109 0.127292V0.138125V0.155458L6.36621 0.182542V0.187958V0.191208C6.36621 0.191208 6.36621 0.193375 6.36621 0.194458V0.216667H6.3635V0.225333H6.344V0.256208H6.34075V0.281125H6.32775V0.301708V0.303333C6.32775 0.303333 6.32775 0.304417 6.32775 0.304958V0.310375V0.313083C6.32775 0.313083 6.32775 0.314708 6.32775 0.315792L6.3153 0.325L6.31259 0.328792V0.340708H6.30988V0.350458H6.30663V0.374833H6.30338V0.385125H6.30067V0.394875H6.29796V0.406792H6.27359V0.414917H6.27088V0.425208H6.26817V0.433333H6.26492V0.445792H6.26221V0.449042V0.450667C6.26221 0.450667 6.26221 0.45175 6.26221 0.452833C6.25192 0.457708 6.24325 0.464208 6.23567 0.47125C6.23405 0.472875 6.23242 0.4745 6.2308 0.476667V0.508083H6.22809V0.50375H6.22538V0.509167H6.22267V0.5135H6.21996V0.525417H6.18692V0.530833H6.1815V0.541667H6.16525V0.547083H6.16255V0.550333H6.15713V0.55575H6.14088V0.559H6.13817V0.590417H6.13492V0.595833H6.13221V0.599083H6.1295V0.602333C6.12734 0.605583 6.12463 0.608292 6.12192 0.611L6.11542 0.616417C6.10784 0.621833 6.1008 0.627792 6.0943 0.63375C6.08996 0.637 6.08617 0.639708 6.08238 0.642958L6.05584 0.664083L6.01575 0.697667C5.98488 0.723125 5.95238 0.751833 5.915 0.783792C5.82346 0.863958 5.71459 0.966875 5.59 1.09146L5.58188 1.09958C4.3718 2.3855 3.61184 4.10746 3.562 6.00654V6.01629C3.55767 6.10025 3.55496 6.19829 3.55496 6.29687C3.55496 6.41604 3.55875 6.53467 3.5658 6.65221L3.56525 6.63596V6.64083C3.62592 7.59687 3.90542 8.47654 4.35392 9.24517L4.33875 9.217C4.50559 9.5095 4.67134 9.75812 4.85225 9.99429L4.84034 9.97804C5.23413 10.4997 5.68263 10.9503 6.1853 11.3338L6.20209 11.3463C6.34021 11.7612 6.42038 12.2384 6.42038 12.7346C6.42038 12.7757 6.41984 12.8169 6.41875 12.8575V12.8516L6.76759 12.968C6.75296 12.8039 6.7443 12.6132 6.7443 12.421C6.7443 12.1322 6.76325 11.8479 6.79955 11.5695L6.7963 11.6025C6.8315 11.4633 6.89705 11.3425 6.98588 11.2428L6.98534 11.2439C7.14675 11.1285 7.28813 11.0142 7.42192 10.8913L7.41867 10.8945C7.42842 10.8842 7.43384 10.875 7.4425 10.8653C8.6488 9.73321 9.40009 8.12933 9.40009 6.34942C9.40009 5.91554 9.35567 5.4925 9.27063 5.08354L9.27767 5.12362L9.24192 5.15558Z"
    fill="currentColor" />
</svg>