<svg width="13" height="13" viewBox="0 0 13 13" fill="none" xmlns="http://www.w3.org/2000/svg">
  <g clip-path="url(#clip0_117_1634)">
    <path
      d="M12.2531 3.75448V9.24172C12.2531 9.59783 12.0615 9.9294 11.7536 10.1086L6.99929 12.8538C6.84723 12.942 6.67475 12.9873 6.49862 12.9873C6.32499 12.9873 6.15206 12.942 5.99997 12.8538L4.41252 11.9146C4.17573 11.7824 4.29128 11.7353 4.36956 11.7082C4.68578 11.5985 4.74973 11.5732 5.0873 11.3816C5.12252 11.3615 5.16896 11.3693 5.20529 11.3903L6.42483 12.1144C6.46904 12.1393 6.53147 12.1393 6.57212 12.1144L11.3268 9.37005C11.3711 9.34476 11.3995 9.29431 11.3995 9.24175V3.75448C11.3995 3.70073 11.3711 3.65053 11.3257 3.62339L6.57296 0.881455C6.52913 0.85581 6.47063 0.85581 6.42651 0.881455L1.6748 3.62415C1.62864 3.65056 1.59952 3.70233 1.59952 3.75448V9.24172C1.59952 9.29426 1.62862 9.34352 1.67452 9.36842L2.97704 10.1214C3.68363 10.4744 4.11644 10.0583 4.11644 9.64005V4.22268C4.11644 4.14608 4.17796 4.08568 4.25454 4.08568H4.85749C4.93288 4.08568 4.99534 4.14605 4.99534 4.22268V9.64008C4.99534 10.5832 4.48153 11.1243 3.58738 11.1243C3.31275 11.1243 3.09614 11.1243 2.49208 10.8269L1.24545 10.1086C0.937383 9.93103 0.746826 9.59785 0.746826 9.24172V3.75448C0.746826 3.39792 0.937383 3.06512 1.24545 2.88777L5.99999 0.140302C6.30087 -0.0298403 6.70098 -0.0298403 6.99929 0.140302L11.7536 2.88777C12.0615 3.06586 12.2531 3.39792 12.2531 3.75448ZM8.15472 8.7183C6.73589 8.7183 6.42371 8.36161 6.31913 7.65605C6.30702 7.58075 6.2425 7.52466 6.16519 7.52466H5.47187C5.386 7.52466 5.31709 7.59329 5.31709 7.67964C5.31709 8.58253 5.8085 9.65938 8.15472 9.65938C9.8535 9.65938 10.8276 8.99061 10.8276 7.82254C10.8276 6.66414 10.0448 6.35598 8.39745 6.13787C6.73236 5.91753 6.56316 5.80406 6.56316 5.41404C6.56316 5.09257 6.70644 4.66296 7.93974 4.66296C9.04103 4.66296 9.44705 4.90033 9.61399 5.64243C9.6287 5.71238 9.69227 5.76341 9.76438 5.76341H10.4603C10.5035 5.76341 10.5445 5.74488 10.5738 5.71408C10.6032 5.68158 10.6188 5.63925 10.6147 5.59487C10.507 4.31577 9.65716 3.71992 7.93971 3.71992C6.41097 3.71992 5.49922 4.3652 5.49922 5.44654C5.49922 6.62002 6.4064 6.94458 7.87324 7.08936C9.6287 7.26156 9.76494 7.51803 9.76494 7.86347C9.76494 8.46266 9.28419 8.7183 8.15472 8.7183Z"
      fill="currentColor" />
  </g>
  <defs>
    <clipPath id="clip0_117_1634">
      <rect width="13" height="13" fill="white" />
    </clipPath>
  </defs>
</svg>