<svg width="13" height="13" viewBox="0 0 13 13" fill="none" color="inherit" xmlns="http://www.w3.org/2000/svg">
  <path
    d="M7.66757 4.03609L6.74375 2.26849C6.69663 2.18034 6.60522 2.12102 6.5 2.12102C6.39479 2.12102 6.30338 2.17993 6.25707 2.26687L6.25625 2.26849L2.19985 9.53793L7.66757 4.03609ZM10.9086 10.2383L9.76625 3.13096C9.74513 2.99893 9.63179 2.89899 9.49529 2.89899C9.4185 2.89899 9.34944 2.93027 9.29947 2.98105L2.09097 10.2387L6.07913 12.4861C6.19532 12.5523 6.33425 12.5917 6.48213 12.5917C6.63 12.5917 6.76935 12.5527 6.88919 12.4841L6.88513 12.4861L10.9086 10.2383ZM2.38266 8.36427L3.58313 0.642274C3.60385 0.509024 3.7176 0.407867 3.85532 0.407867C3.96013 0.407867 4.05154 0.466367 4.09785 0.552899L4.09866 0.554524L5.38972 2.97659L2.38266 8.36427Z"
    fill="currentColor" />
</svg>