<svg width="12" height="13" viewBox="0 0 12 13" fill="none" color="inherit" xmlns="http://www.w3.org/2000/svg">
  <path
    d="M11.8531 0L10.7696 11.736L6.07521 13L1.38076 11.736L0.297485 0H11.8531ZM9.66976 2.38634H6.07098H2.40845L2.58361 3.80357H6.07098H6.26687L6.07098 3.88511L2.71107 5.28448L2.8225 6.66979L6.07098 6.68032L7.81207 6.68584L7.70062 8.53297L6.07096 8.99179V8.99034L6.0576 8.99405L4.48376 8.59675L4.38825 7.45015H4.38304H2.92322H2.91808L3.10916 9.66364L6.07101 10.5395V10.538L6.07635 10.5395L9.02233 9.67959L9.40447 5.28448H6.07101H6.06279L6.07101 5.28092L9.52658 3.80357L9.66976 2.38634Z"
    fill="currentColor" />
</svg>