<svg width="13" height="13" viewBox="0 0 13 13" fill="none" color="inherit" xmlns="http://www.w3.org/2000/svg">
  <path
    d="M7.19687 6.49999C7.19687 5.58485 7.91871 4.85443 8.79531 4.85443C9.67272 4.85443 10.3937 5.58404 10.3937 6.49999C10.3937 7.41521 9.67265 8.14556 8.79531 8.14556C7.91938 8.14556 7.19687 7.41581 7.19687 6.49999Z"
    stroke="currentColor" stroke-width="0.5" />
  <path
    d="M3.25 10.2919C3.25 9.24463 4.07794 8.39557 5.09844 8.39557H6.94688V10.2919C6.94688 11.3384 6.11894 12.1875 5.09844 12.1875C4.07794 12.1875 3.25 11.3384 3.25 10.2919Z"
    fill="currentColor" />
  <path
    d="M8.79531 4.35444H7.19687V1.0625H8.79531C9.67258 1.0625 10.3937 1.79359 10.3937 2.70806C10.3937 3.62342 9.67251 4.35444 8.79531 4.35444Z"
    stroke="currentColor" stroke-width="0.5" />
  <path
    d="M3.25 2.70806C3.25 3.75537 4.07794 4.60444 5.09844 4.60444H6.94688V0.8125H5.09844C4.07794 0.8125 3.25 1.66156 3.25 2.70806Z"
    fill="currentColor" />
  <path
    d="M3.25 6.49999C3.25 7.54731 4.07794 8.39556 5.09844 8.39556H6.94688V4.60443H5.09844C4.07794 4.60443 3.25 5.45187 3.25 6.49999Z"
    fill="currentColor" />
</svg>