<svg width="14" height="13" viewBox="0 0 14 13" fill="none" color="inherit" xmlns="http://www.w3.org/2000/svg">
  <path
    d="M13.072 12.681L12.7969 12.4188C12.6609 12.2395 12.5163 12.0808 12.3587 11.9362L12.356 11.934C12.1942 11.787 12.0261 11.6473 11.8517 11.5147C11.7119 11.4187 11.5198 11.303 11.2753 11.1675C11.0744 11.0771 10.9173 10.9184 10.8322 10.7212L10.8301 10.7158L10.8041 10.7028C10.9189 10.6914 11.024 10.6703 11.1247 10.6405L11.1123 10.6437L11.421 10.5587C11.5489 10.5186 11.6967 10.4926 11.85 10.4867H11.8533C12.0147 10.4802 12.1669 10.4542 12.3121 10.4114L12.2985 10.4146C12.3686 10.3973 12.4406 10.3776 12.5147 10.3556C12.5887 10.3336 12.6521 10.3139 12.7048 10.2965V10.205C12.6524 10.1266 12.5891 10.0371 12.5147 9.93633C12.4437 9.83992 12.3641 9.75596 12.2747 9.68283L12.272 9.68067C12.0449 9.47989 11.8096 9.28561 11.5662 9.09783C11.3517 8.93046 11.1085 8.75983 10.8561 8.60167L10.8192 8.58C10.686 8.49225 10.5332 8.411 10.3724 8.34437L10.354 8.33787C10.1922 8.27215 10.0327 8.20011 9.87567 8.12175C9.82312 8.09575 9.76192 8.073 9.69854 8.05729L9.69258 8.05621C9.62921 8.04321 9.57504 8.01071 9.5355 7.96467L9.53496 7.96412C9.46021 7.86554 9.39467 7.75342 9.34267 7.63425L9.33833 7.62342C9.28597 7.501 9.22928 7.38346 9.16825 7.27079C9.03717 7.01729 8.91042 6.75964 8.788 6.49783C8.66558 6.23603 8.54804 5.97386 8.43537 5.71133C8.35701 5.53655 8.28497 5.36196 8.21925 5.18754C8.14667 4.99579 8.06487 4.83167 7.96954 4.67729L7.97658 4.68975C7.74258 4.29108 7.50912 3.95092 7.25562 3.62754L7.27079 3.64812C7.02 3.33179 6.76 3.04904 6.4805 2.78687L6.47617 2.78308C6.20046 2.52417 5.90362 2.27717 5.59217 2.04858L5.56562 2.02962C5.24207 1.79454 4.88818 1.56307 4.50396 1.33521C4.34958 1.24421 4.17029 1.17 3.98125 1.12233L3.96717 1.11908L3.36429 0.9685L3.02358 0.9425C2.91019 0.933833 2.79662 0.9295 2.68287 0.9295C2.60271 0.88725 2.53392 0.836875 2.47325 0.778375C2.41367 0.7215 2.34921 0.667875 2.28204 0.618583L2.27662 0.614792C1.94892 0.423583 1.56812 0.248625 1.17 0.111042L1.12396 0.0969583C1.01942 0.03575 0.89375 0 0.759958 0C0.664625 0 0.573083 0.0184167 0.489667 0.0514583L0.494542 0.0498333C0.288708 0.131625 0.131625 0.297917 0.0639167 0.504833L0.0622917 0.51025C0.02275 0.603417 0 0.711208 0 0.824958C0 1.02429 0.0704167 1.20683 0.187958 1.34929L0.186875 1.34767C0.383319 1.60947 0.533903 1.81531 0.638625 1.96517C0.716986 2.07025 0.797875 2.17949 0.881292 2.29288C0.957667 2.39471 1.02537 2.51117 1.08008 2.63412L1.08442 2.6455C1.11475 2.70996 1.14129 2.78687 1.16079 2.86596L1.16242 2.87462C1.17975 2.94901 1.2016 3.0299 1.22796 3.11729C1.30632 3.31807 1.38053 3.5239 1.45058 3.73479C1.52696 3.965 1.61146 4.16 1.7095 4.34579L1.69921 4.32412C1.75157 4.42018 1.80411 4.51407 1.85683 4.60579C1.90956 4.69751 1.96625 4.78707 2.02692 4.87446C2.06212 4.92754 2.10654 4.97142 2.15746 5.00554L2.15908 5.00662C2.21271 5.04562 2.24792 5.10683 2.25062 5.17617C2.18887 5.26717 2.14717 5.37658 2.13308 5.49412L2.13254 5.49737C2.11358 5.63442 2.0865 5.75629 2.04967 5.87383L2.054 5.85758C1.93321 6.21833 1.86387 6.63433 1.86387 7.06604C1.86387 7.20579 1.87092 7.34337 1.88554 7.47933L1.88392 7.46254C1.91642 7.98146 2.07296 8.45813 2.32375 8.87087L2.31617 8.85733C2.42287 9.01713 2.53717 9.15633 2.66337 9.28362C2.75437 9.38546 2.88654 9.44937 3.03387 9.44937C3.11621 9.44937 3.19421 9.42933 3.26246 9.39358L3.25975 9.39467C3.44933 9.32642 3.58421 9.15308 3.59396 8.94671V8.94563C3.61996 8.68888 3.65896 8.45921 3.71258 8.23496L3.70554 8.27125C3.71854 8.23712 3.72612 8.19812 3.72612 8.15696C3.72612 8.14883 3.72558 8.14071 3.72504 8.13258V8.13367C3.72071 8.09431 3.74472 8.05711 3.79708 8.02208V8.04808C3.84944 8.1705 3.90397 8.29274 3.96067 8.41479C4.01736 8.53685 4.07622 8.65908 4.13725 8.7815C4.29704 9.02471 4.46658 9.23704 4.65292 9.43258L4.65129 9.43096C4.83817 9.63246 5.04183 9.81337 5.26175 9.97317L5.27367 9.98129C5.3885 10.069 5.48925 10.1638 5.58025 10.2673L5.58242 10.2695C5.668 10.3702 5.77037 10.4531 5.88575 10.5154L5.89117 10.5181V10.5051H5.91717C5.89604 10.458 5.86192 10.42 5.81967 10.394L5.81858 10.3935C5.77579 10.3697 5.73896 10.3458 5.70429 10.3198L5.707 10.3215C5.62864 10.2431 5.54775 10.1557 5.46433 10.0593C5.38092 9.96287 5.30454 9.87115 5.23521 9.78412C5.05176 9.53062 4.87681 9.26575 4.71033 8.9895C4.54386 8.71325 4.3866 8.43249 4.23854 8.14721C4.16849 8.00746 4.10078 7.86337 4.03542 7.71496C3.97006 7.56654 3.90668 7.42246 3.84529 7.28271C3.81875 7.22908 3.80033 7.16733 3.79329 7.10179V7.09908C3.79004 7.03679 3.75429 6.98317 3.70229 6.95554L3.70121 6.955C3.63567 7.06658 3.56308 7.163 3.48021 7.25021L3.48075 7.24967C3.39462 7.34012 3.32421 7.44683 3.27383 7.56383L3.27112 7.57087C3.19475 7.75612 3.13896 7.97117 3.11458 8.19596L3.1135 8.20625C3.0875 8.43772 3.06132 8.67569 3.03496 8.92017L3.00896 8.93317L2.99596 8.94617C2.85512 8.91746 2.73921 8.82754 2.67637 8.70621L2.67529 8.7035C2.60957 8.57675 2.55071 8.45217 2.49871 8.32975C2.36438 7.98471 2.28096 7.5855 2.26958 7.16842V7.16354C2.26471 7.09746 2.26254 7.02 2.26254 6.94254C2.26254 6.58179 2.31942 6.23404 2.4245 5.90796L2.418 5.93179C2.444 5.83574 2.50069 5.67396 2.58808 5.44646C2.67547 5.21896 2.69299 5.06169 2.64062 4.97467C2.61354 4.88529 2.56317 4.81 2.49708 4.75258L2.49654 4.75204C2.43046 4.69462 2.37033 4.6345 2.31508 4.57058L2.31346 4.56842C2.25243 4.48031 2.19357 4.38642 2.13687 4.28675C2.08018 4.18708 2.02999 4.08886 1.98629 3.99208C1.89692 3.78517 1.80537 3.52571 1.72954 3.25921L1.71762 3.211C1.6315 2.90496 1.53562 2.64604 1.42187 2.39687L1.43596 2.43154C1.37583 2.29504 1.30596 2.17696 1.22471 2.06917L1.22796 2.0735C1.13985 1.95578 1.06112 1.84437 0.991792 1.73929C0.903681 1.6259 0.816292 1.51667 0.729625 1.41158C0.641333 1.30488 0.562792 1.18462 0.498875 1.05571L0.494 1.04487C0.468 0.992333 0.44525 0.931125 0.429542 0.86775L0.428458 0.861792C0.4225 0.842833 0.41925 0.820625 0.41925 0.798417C0.41925 0.754 0.43225 0.712292 0.455 0.677625L0.454458 0.678708C0.460417 0.648375 0.4745 0.621833 0.494 0.600167C0.515125 0.581208 0.542208 0.567125 0.571458 0.561167H0.572542C0.618583 0.531375 0.674375 0.5135 0.735042 0.5135C0.780542 0.5135 0.824417 0.523792 0.862875 0.542208L0.86125 0.541667C0.979875 0.57525 1.07575 0.608833 1.16946 0.647292L1.14996 0.64025C1.31571 0.710305 1.46864 0.778014 1.60875 0.843375C1.77017 0.920292 1.90775 1.00154 2.03775 1.092L2.028 1.0855C2.09806 1.12919 2.16793 1.17722 2.23762 1.22958C2.30732 1.28194 2.38153 1.33449 2.46025 1.38721H2.64387C2.78362 1.38721 2.93204 1.39389 3.08912 1.40725C3.24783 1.41971 3.39462 1.4495 3.53437 1.49608L3.52137 1.49229C3.78192 1.56975 4.00562 1.66129 4.21796 1.77125L4.19575 1.76096C4.40989 1.87001 4.61301 1.98575 4.80512 2.10817C5.12417 2.30696 5.39987 2.51062 5.65933 2.73325L5.65012 2.72567C5.92096 2.9575 6.16687 3.19529 6.39762 3.44662L6.40304 3.45312C6.62837 3.69904 6.84342 3.96608 7.04004 4.24612L7.05683 4.27158C7.23775 4.52725 7.42029 4.823 7.58442 5.12958L7.60717 5.17562C7.65104 5.25904 7.69546 5.36142 7.73392 5.46596L7.73987 5.48383C7.7749 5.58422 7.81408 5.68714 7.85742 5.79258C7.95347 6.01105 8.05639 6.23151 8.16617 6.45396C8.27594 6.6764 8.37886 6.89271 8.47492 7.10287L8.76308 7.73175C8.86437 7.95167 8.97758 8.14125 9.10921 8.31621L9.10325 8.30808C9.21321 8.42562 9.36 8.50796 9.52467 8.53667L9.529 8.53721C9.72833 8.58704 9.89625 8.64337 10.0587 8.71L10.0333 8.70079C10.1107 8.736 10.2104 8.77338 10.3128 8.80642L10.3345 8.81238C10.4493 8.84758 10.549 8.89417 10.6405 8.95267L10.6356 8.94996C10.8127 9.04908 10.9628 9.14658 11.1058 9.25275L11.0944 9.24463C11.2428 9.35368 11.3912 9.4566 11.5397 9.55338C11.6097 9.60574 11.7273 9.68211 11.8923 9.7825C12.0573 9.88289 12.1447 9.97678 12.1545 10.0642C12.0927 10.062 12.0196 10.0604 11.9465 10.0604C11.68 10.0604 11.4178 10.0777 11.161 10.1113L11.1914 10.108C10.901 10.147 10.6378 10.218 10.3902 10.3193L10.4119 10.3117C10.3507 10.3382 10.2776 10.3626 10.2017 10.3816L10.1915 10.3837C10.1145 10.3951 10.055 10.4569 10.0474 10.5338C10.0804 10.575 10.107 10.6232 10.1248 10.6752L10.1259 10.6784C10.1443 10.7337 10.1665 10.7813 10.1936 10.8257L10.192 10.8225C10.2565 10.9368 10.3258 11.0354 10.4038 11.1264L10.4016 11.1237C10.478 11.2179 10.5641 11.2997 10.6595 11.3696L10.6632 11.3723C10.7514 11.4423 10.8431 11.5144 10.9384 11.5884C11.0256 11.6567 11.1242 11.7238 11.2266 11.7845L11.2396 11.7915C11.3934 11.8858 11.5722 11.9757 11.7585 12.051L11.7834 12.0597C11.986 12.1409 12.1599 12.2352 12.3213 12.3473L12.3126 12.3413C12.4177 12.4024 12.5224 12.4701 12.6268 12.5445C12.7312 12.6188 12.8315 12.6909 12.928 12.7606C12.9675 12.7996 13.0022 12.8429 13.0314 12.89L13.033 12.8927C13.0823 12.9491 13.1506 12.9875 13.228 12.9973H13.2297V12.9713C13.182 12.935 13.1468 12.8846 13.13 12.8267L13.1295 12.8245C13.1159 12.7692 13.0959 12.721 13.0688 12.6766L13.0699 12.6788L13.072 12.681ZM3.01004 2.27825C2.93999 2.27825 2.87444 2.28042 2.81342 2.28475C2.75112 2.28908 2.69317 2.30046 2.63846 2.31887L2.64333 2.31725V2.33025H2.66933C2.70436 2.38261 2.74842 2.44147 2.8015 2.50683C2.85458 2.57219 2.90261 2.63557 2.94558 2.69696L3.15521 3.12921L3.18121 3.11621C3.24242 3.07179 3.28954 3.01221 3.31771 2.94233L3.31879 2.93962C3.34696 2.86433 3.36321 2.77658 3.36321 2.68558C3.36321 2.67583 3.36321 2.66608 3.36267 2.65633V2.65796C3.33829 2.63412 3.31825 2.60596 3.30417 2.57454L3.30362 2.57292L3.25975 2.47433C3.23104 2.42883 3.19096 2.39308 3.14383 2.37033L3.14221 2.36979C3.09129 2.34542 3.04796 2.31454 3.01004 2.27825Z"
    fill="currentColor" />
</svg>