<svg width="13" height="13" viewBox="0 0 13 13" fill="none" color="inherit" xmlns="http://www.w3.org/2000/svg">
  <rect width="13" height="13" rx="2" fill="currentColor" />
  <path
    d="M6.50233 5.61375C6.67403 5.61376 6.8419 5.66483 6.98479 5.76052C7.12768 5.85621 7.23921 5.99225 7.30533 6.15151C7.37146 6.31077 7.38923 6.48613 7.3564 6.65551C7.32357 6.8249 7.24161 6.98074 7.12085 7.10341C7.00008 7.22609 6.8459 7.31011 6.67772 7.3449C6.50954 7.3797 6.33488 7.36371 6.17572 7.29895C6.01657 7.23418 5.88003 7.12355 5.78331 6.98096C5.68658 6.83838 5.63399 6.67022 5.63215 6.49766C5.63154 6.3822 5.65356 6.26775 5.69696 6.16084C5.74036 6.05393 5.80429 5.95666 5.88509 5.87458C5.96589 5.7925 6.06199 5.72722 6.1679 5.68247C6.2738 5.63771 6.38744 5.61437 6.50233 5.61375ZM4.34784 10.2391C4.641 10.4168 5.2785 10.1455 6.02303 9.44402C5.77419 9.15982 5.53968 8.86325 5.32038 8.55544C4.94506 8.51319 4.57225 8.45075 4.20358 8.36837C3.96626 9.3692 4.05468 10.0567 4.34784 10.2391ZM4.67822 7.55461L4.54328 7.3161C4.49067 7.44746 4.44562 7.58175 4.40833 7.7183C4.53397 7.74636 4.67357 7.76974 4.81782 7.79313L4.67822 7.55461ZM7.7215 7.19918L8.09842 6.49766L7.7215 5.79615C7.5819 5.54828 7.43299 5.32847 7.29805 5.10866C7.04677 5.09463 6.78153 5.09463 6.50233 5.09463C6.22313 5.09463 5.95789 5.09463 5.70661 5.09463C5.57166 5.31444 5.42275 5.53425 5.28315 5.78212L4.90624 6.49766L5.28315 7.19918C5.42275 7.44705 5.57166 7.66685 5.70661 7.88666C5.95789 7.88666 6.22313 7.88666 6.50233 7.88666C6.78153 7.88666 7.04677 7.88666 7.29805 7.88666C7.43299 7.66685 7.5819 7.44705 7.7215 7.19918ZM6.50233 4.05639C6.41391 4.15928 6.32085 4.26684 6.22778 4.39312H6.77687C6.68381 4.26684 6.59074 4.15928 6.50233 4.05639ZM6.50233 8.93893C6.59074 8.83604 6.68381 8.72848 6.77687 8.60221H6.22778C6.32085 8.72848 6.41391 8.83604 6.50233 8.93893ZM8.65216 2.75625C8.36366 2.57853 7.7215 2.84978 6.98162 3.5513C7.23046 3.83551 7.46498 4.13207 7.68427 4.43988C8.05926 4.47595 8.43206 4.53215 8.80107 4.60825C9.03839 3.60742 8.94998 2.91994 8.65216 2.73754M8.32643 5.42201L8.46138 5.66052C8.51398 5.52916 8.55904 5.39487 8.59632 5.25832C8.47068 5.23026 8.33108 5.20687 8.18683 5.18349L8.32643 5.42201ZM9.00116 2.14827C9.6852 2.54112 9.75966 3.57468 9.4665 4.78129C10.6484 5.13205 11.5 5.71664 11.5 6.50234C11.5 7.28804 10.6484 7.87263 9.4665 8.22339C9.755 9.42999 9.68055 10.4636 9.00116 10.8564C8.32178 11.2493 7.39577 10.8003 6.50233 9.94444C5.60889 10.8003 4.68288 11.2493 3.99884 10.8564C3.3148 10.4636 3.245 9.45338 3.5335 8.22339C2.35156 7.87263 1.5 7.28804 1.5 6.50234C1.5 5.71664 2.35156 5.12737 3.5335 4.77661C3.245 3.57001 3.31945 2.53644 3.99884 2.14359C4.67822 1.75074 5.60889 2.19971 6.50233 3.05556C7.39577 2.19971 8.32178 1.75074 9.00116 2.14359M8.86622 6.49766C9.02783 6.84194 9.17074 7.19477 9.29432 7.55461C10.2715 7.25997 10.8206 6.83907 10.8206 6.49766C10.8206 6.15626 10.2576 5.73535 9.29432 5.44071C9.17074 5.80055 9.02783 6.15338 8.86622 6.49766ZM4.13844 6.49766C3.97683 6.15338 3.83391 5.80055 3.71033 5.44071C2.73313 5.73535 2.18404 6.15626 2.18404 6.49766C2.18404 6.83907 2.74709 7.25997 3.71033 7.55461C3.83391 7.19477 3.97683 6.84194 4.13844 6.49766ZM8.32643 7.55461L8.18683 7.79313C8.33108 7.79313 8.47068 7.74636 8.59632 7.7183C8.55904 7.58175 8.51398 7.44746 8.46138 7.3161L8.32643 7.55461ZM6.96766 9.44402C7.70754 10.1455 8.36366 10.4168 8.6382 10.2391C8.91275 10.0614 9.02443 9.3879 8.78711 8.36837C8.4181 8.44446 8.0453 8.50067 7.67031 8.53673C7.45153 8.85092 7.21701 9.15374 6.96766 9.44402ZM4.67822 5.44071L4.81782 5.2022C4.67357 5.2022 4.53397 5.24897 4.40833 5.27703C4.44562 5.41358 4.49067 5.54787 4.54328 5.67923L4.67822 5.44071ZM6.03699 3.5513C5.28315 2.84978 4.641 2.57853 4.34784 2.75625C4.05468 2.93397 3.96626 3.60742 4.20358 4.62696C4.5726 4.55086 4.94539 4.49466 5.32038 4.45859C5.5437 4.14407 5.78288 3.84125 6.03699 3.5513Z"
    fill="white" />
</svg>