<svg width="14" height="13" viewBox="0 0 14 13" fill="none" color="inherit" xmlns="http://www.w3.org/2000/svg">
  <g clip-path="url(#clip0_117_1228)">
    <path
      d="M0.694336 6.5V13H13.6943V0H0.694336V6.5ZM11.1699 5.98163C11.5002 6.06409 11.7516 6.21238 11.9844 6.45125C12.1031 6.578 12.2806 6.81078 12.2956 6.86806C12.2997 6.88513 11.735 7.26375 11.3921 7.47541C11.3795 7.48394 11.3287 7.43112 11.2735 7.34825C11.1065 7.10491 10.9306 6.99928 10.6621 6.98019C10.2684 6.95459 10.0145 7.16016 10.0166 7.50506C10.0145 7.58956 10.0336 7.67447 10.0714 7.74841C10.1583 7.92837 10.3212 8.03603 10.8246 8.25419C11.7557 8.65394 12.1534 8.91841 12.4008 9.29297C12.6779 9.71181 12.7392 10.3805 12.5532 10.8798C12.346 11.4193 11.8337 11.7873 11.1142 11.908C10.892 11.9482 10.3631 11.9417 10.1238 11.8974C9.60137 11.8044 9.10615 11.546 8.80146 11.2076C8.6808 11.0764 8.44802 10.7315 8.46305 10.7083C8.46955 10.6998 8.52237 10.6661 8.58168 10.632C8.64099 10.5978 8.85874 10.4711 9.06431 10.3525L9.43887 10.1347L9.51727 10.2509C9.62737 10.4179 9.86624 10.6466 10.0105 10.7226C10.4252 10.9427 10.9944 10.9111 11.2759 10.6592C11.3901 10.5641 11.4539 10.4179 11.4453 10.27C11.4453 10.1197 11.4262 10.0522 11.3478 9.93972C11.2463 9.79591 11.0411 9.67322 10.4549 9.41931C9.78418 9.12925 9.49412 8.95172 9.23209 8.66613C9.06715 8.47762 8.94446 8.25581 8.87459 8.01653C8.82584 7.8325 8.81324 7.371 8.85143 7.18697C8.98915 6.53737 9.4799 6.08684 10.1843 5.95359C10.4131 5.90931 10.9461 5.92597 11.1703 5.98122L11.1699 5.98163ZM8.11896 6.52559L8.12302 7.05656H6.43018V11.8662H5.23255V7.05656H3.54215V6.53616C3.54215 6.24609 3.54865 6.00519 3.55677 5.99869C3.56327 5.99016 4.59149 5.98609 5.8399 5.98812L8.11246 5.99462L8.11896 6.52559Z"
      fill="currentColor" />
  </g>
  <defs>
    <clipPath id="clip0_117_1228">
      <rect x="0.694336" width="13" height="13" rx="2" fill="white" />
    </clipPath>
  </defs>
</svg>