<svg width="13" height="13" viewBox="0 0 13 13" fill="none" color="inherit" xmlns="http://www.w3.org/2000/svg">
  <path
    d="M0.857147 0L1.89826 11.6776L6.57029 12.9745L11.2552 11.6758L12.2975 0H0.857147ZM10.1258 2.77126L10.0606 3.49733L10.0319 3.81931H10.0272H6.57733H6.57232H4.55125L4.68214 5.2859H6.57232H6.57733H9.5156H9.90157L9.8666 5.67046L9.53005 9.44112L9.5085 9.68292L6.57733 10.4953V10.4956L6.57075 10.4974L3.63694 9.68294L3.43628 7.4342H4.09892H4.87399L4.97596 8.57642L6.571 9.00717L6.57232 9.00682V9.00666L8.1698 8.57561L8.33591 6.71808H6.57733H6.57232H3.37229L3.0203 2.77126L2.986 2.38707H6.57235H6.57733H10.16L10.1258 2.77126Z"
    fill="currentColor" />
</svg>