<svg width="14" height="13" viewBox="0 0 14 13" fill="none" color="inherit" xmlns="http://www.w3.org/2000/svg">
  <g clip-path="url(#clip0_165_1617)">
    <path
      d="M11.8083 0.0126953H3.15857C1.96922 0.0126953 0.996124 0.985791 0.996124 2.17514V10.8249C0.996124 12.0142 1.96922 12.9873 3.15857 12.9873H11.8083C12.9977 12.9873 13.9708 12.0142 13.9708 10.8249V2.17514C13.9707 0.985791 12.9976 0.0126953 11.8083 0.0126953ZM7.21249 6.61487C6.76216 7.0652 6.05439 7.27667 5.25479 7.27667C5.04339 7.27667 4.8504 7.26741 4.70331 7.23983V9.57437H3.58208V3.46234C3.98648 3.38884 4.54716 3.33364 5.30992 3.33364C6.13719 3.33364 6.7438 3.50827 7.13903 3.83919C7.50669 4.14253 7.74561 4.62963 7.74561 5.20866C7.74559 5.79691 7.56178 6.28398 7.21249 6.61487ZM9.56498 9.66636C9.02268 9.66636 8.53559 9.53766 8.2047 9.3538L8.42527 8.53582C8.6826 8.69207 9.16977 8.85754 9.57417 8.85754C10.0704 8.85754 10.2911 8.65533 10.2911 8.36118C10.2911 8.05794 10.1073 7.90164 9.55579 7.70864C8.68258 7.4053 8.31505 6.9274 8.32421 6.40349C8.32421 5.61305 8.97675 4.99728 10.0153 4.99728C10.5117 4.99728 10.9437 5.12599 11.2009 5.26378L10.9804 6.06341C10.7874 5.95316 10.4289 5.80607 10.0337 5.80607C9.62927 5.80607 9.4087 5.99909 9.4087 6.27479C9.4087 6.55977 9.6201 6.69767 10.19 6.89985C10.9988 7.19393 11.3756 7.60751 11.3848 8.26935C11.3848 9.07814 10.7506 9.66636 9.56498 9.66636ZM6.61507 5.25459C6.61507 5.98071 6.10033 6.3943 5.25479 6.3943C5.02503 6.3943 4.8412 6.38511 4.70331 6.34837V4.25278C4.82285 4.22523 5.04342 4.19765 5.35595 4.19765C6.13719 4.19765 6.61507 4.56531 6.61507 5.25459Z"
      fill="currentColor" />
  </g>
  <defs>
    <clipPath id="clip0_165_1617">
      <rect width="13" height="13" fill="white" transform="translate(0.983429)" />
    </clipPath>
  </defs>
</svg>