<svg width="13" height="13" viewBox="0 0 13 13" fill="none" xmlns="http://www.w3.org/2000/svg">
<path d="M6.94687 6.49999C6.94687 5.45268 7.77481 4.60443 8.79531 4.60443C9.81662 4.60443 10.6437 5.45187 10.6437 6.49999C10.6437 7.54731 9.81662 8.39556 8.79531 8.39556C7.77562 8.39556 6.94687 7.54812 6.94687 6.49999Z" fill="#1ABCFE"/>
<path d="M3.25 10.2919C3.25 9.24463 4.07794 8.39557 5.09844 8.39557H6.94688V10.2919C6.94688 11.3384 6.11894 12.1875 5.09844 12.1875C4.07794 12.1875 3.25 11.3384 3.25 10.2919Z" fill="#0ACF83"/>
<path d="M6.94687 0.8125V4.60444H8.79531C9.81662 4.60444 10.6437 3.75537 10.6437 2.70806C10.6437 1.66156 9.81662 0.8125 8.79531 0.8125H6.94687Z" fill="#FF7262"/>
<path d="M3.25 2.70806C3.25 3.75537 4.07794 4.60444 5.09844 4.60444H6.94688V0.8125H5.09844C4.07794 0.8125 3.25 1.66156 3.25 2.70806Z" fill="#F24E1E"/>
<path d="M3.25 6.49999C3.25 7.54731 4.07794 8.39556 5.09844 8.39556H6.94688V4.60443H5.09844C4.07794 4.60443 3.25 5.45187 3.25 6.49999Z" fill="#A259FF"/>
</svg>
