<svg width="16" height="15" viewBox="0 0 16 15" fill="none" color="inherit" xmlns="http://www.w3.org/2000/svg">
  <path
    d="M13.8167 11.1162C14.685 9.91186 15.095 8.47263 14.9814 7.02717C14.8679 5.5817 14.2374 4.21294 13.1901 3.13837C12.1427 2.06381 10.7387 1.34508 9.20108 1.09641C7.66344 0.847731 6.08041 1.08337 4.70353 1.76588C3.32664 2.44839 2.2349 3.53862 1.60178 4.86333C0.968661 6.18803 0.830482 7.67122 1.2092 9.07721C1.58792 10.4832 2.46181 11.7313 3.69201 12.6233C4.92222 13.5152 6.43815 13.9998 7.99894 14C8.33865 14.0001 8.66977 13.9008 8.94534 13.7164C9.22092 13.5319 9.42696 13.2716 9.53427 12.9723L12.2767 5.33334M9.1656 5.33334L10.7212 9.66667"
    stroke="currentColor" stroke-linecap="round" stroke-linejoin="round" />
  <path
    d="M7.0376 5.63017C6.68387 5.4377 6.28177 5.33516 5.87179 5.33289C5.46181 5.33063 5.05843 5.42871 4.70226 5.61726C4.34609 5.80581 4.04971 6.07818 3.84296 6.40693C3.63622 6.73569 3.52641 7.10922 3.52459 7.48992C3.52277 7.87062 3.62901 8.24504 3.83261 8.57548C4.03621 8.90592 4.32998 9.18072 4.68434 9.3722C5.03869 9.56367 5.44113 9.66507 5.85111 9.66618C6.2611 9.66728 6.66416 9.56806 7.01971 9.3785"
    stroke="currentColor" stroke-linecap="round" stroke-linejoin="round" />
</svg>