<svg width="13" height="13" viewBox="0 0 13 13" fill="none" color="inherit" xmlns="http://www.w3.org/2000/svg">
  <g clip-path="url(#clip0_43_798)">
    <path
      d="M12.0526 6.4025C12.052 6.02964 11.9279 5.66748 11.6998 5.37254C11.4717 5.0776 11.1523 4.86646 10.7916 4.77208L12.4101 0H4.38967L6.0125 4.78725C5.66216 4.88937 5.35436 5.10228 5.13522 5.39408C4.91608 5.68587 4.79741 6.04083 4.797 6.40575C4.797 6.97071 5.07867 7.47121 5.50821 7.77942C5.33541 8.02302 5.13871 8.24875 4.92104 8.45325C4.52064 8.8346 4.05208 9.13724 3.53979 9.34537C3.08804 9.04042 2.8925 8.50254 3.06908 8.02046C3.45338 7.90109 3.78225 7.64811 3.99618 7.30728C4.21011 6.96646 4.29497 6.56031 4.23541 6.16234C4.17584 5.76437 3.97579 5.40086 3.67144 5.13761C3.3671 4.87436 2.97857 4.72875 2.57617 4.72712C2.12913 4.7277 1.70057 4.90554 1.38447 5.22164C1.06837 5.53774 0.890533 5.9663 0.889959 6.41333C0.889959 6.87267 1.07792 7.29408 1.37908 7.59525C1.35308 7.64779 1.32654 7.70087 1.3 7.75721C1.04813 8.27667 0.762126 8.86383 0.652709 9.5225C0.434418 10.8398 0.791918 11.8972 1.65425 12.4957C2.12097 12.8249 2.67834 13.0011 3.24946 13C4.23908 13 5.24388 12.5033 6.21508 12.0212C6.90788 11.6789 7.62288 11.3214 8.3265 11.148C8.5865 11.0841 8.85733 11.0467 9.14333 11.005C9.72292 10.9222 10.3215 10.836 10.8593 10.523C11.1665 10.3469 11.4315 10.1059 11.6356 9.81664C11.8398 9.52742 11.9782 9.19704 12.0412 8.84867C12.1355 8.31025 12.0412 7.76858 11.8007 7.29408C11.9622 7.03408 12.0526 6.73021 12.0526 6.4025ZM11.3187 6.4025C11.3187 6.92521 10.8935 7.35042 10.3708 7.35042C10.1739 7.34987 9.98211 7.28816 9.82187 7.17383C9.66164 7.05949 9.5409 6.89819 9.47636 6.71223C9.41181 6.52627 9.40665 6.32485 9.4616 6.13584C9.51654 5.94682 9.62887 5.77955 9.78304 5.65717L9.78683 5.65337C9.81717 5.63062 9.85075 5.60787 9.88433 5.58567C9.88433 5.58567 9.88867 5.58567 9.88867 5.58187C9.90383 5.57429 9.91846 5.56292 9.93363 5.55479C9.93742 5.55479 9.94121 5.55154 9.945 5.55154C9.96017 5.54396 9.97913 5.53637 9.99754 5.52879C10.0165 5.52121 10.0355 5.51417 10.0506 5.50658C10.0544 5.50658 10.0577 5.50279 10.0615 5.50279C10.0766 5.499 10.0918 5.49142 10.107 5.48762C10.1108 5.48762 10.1178 5.48383 10.1221 5.48383C10.1405 5.48004 10.1557 5.47625 10.1747 5.473H10.1785L10.2348 5.46108C10.2386 5.46108 10.2456 5.46108 10.25 5.45729C10.2651 5.45729 10.2798 5.4535 10.2949 5.4535H10.3139C10.3328 5.4535 10.3518 5.44971 10.374 5.44971H10.4228C10.4379 5.44971 10.4498 5.44971 10.4645 5.4535H10.472C10.5018 5.45729 10.5322 5.46108 10.5625 5.46867C10.7762 5.51445 10.9678 5.63203 11.1053 5.80183C11.2429 5.97163 11.3182 6.18396 11.3187 6.4025ZM5.43996 0.752917H11.3604L10.0013 4.76125C9.945 4.77208 9.88867 4.79104 9.83233 4.81L8.40233 1.89312L6.968 4.79104C6.91167 4.77262 6.851 4.76125 6.79087 4.74987L5.43996 0.752917ZM8.13096 6.07479C8.06172 5.72736 7.88378 5.41094 7.62288 5.17129L8.40179 3.59829L9.18829 5.20542C8.95537 5.43833 8.78583 5.73625 8.71812 6.07479H8.13096ZM6.24542 5.48004C6.26383 5.47625 6.279 5.47246 6.29796 5.46921H6.30879C6.3245 5.46487 6.33913 5.46487 6.35429 5.46108H6.36946C6.38463 5.46108 6.396 5.45729 6.41063 5.45729H6.55742C6.57258 5.45729 6.58396 5.46108 6.59533 5.46108C6.60292 5.46108 6.60617 5.46108 6.61429 5.46487C6.62892 5.46867 6.64029 5.46867 6.65546 5.47246C6.65925 5.47246 6.66304 5.47246 6.67063 5.47625L6.72317 5.48708H6.72696C6.74213 5.49142 6.75729 5.49521 6.77192 5.50279C6.77571 5.50279 6.7795 5.50658 6.78708 5.50658C6.79846 5.51038 6.81363 5.51417 6.825 5.52121C6.82879 5.52121 6.83258 5.525 6.83583 5.525C6.851 5.53258 6.86617 5.53637 6.88133 5.54396H6.88513C6.90252 5.55053 6.91892 5.55946 6.93388 5.5705H6.93767C6.95283 5.57808 6.968 5.58892 6.98317 5.5965C6.98696 5.5965 6.98696 5.60029 6.99021 5.60029C7.00538 5.60787 7.01729 5.61925 7.03192 5.62683L7.03571 5.63062C7.08067 5.66421 7.12238 5.70212 7.16354 5.7395L7.16733 5.74329C7.33507 5.91998 7.4282 6.15454 7.42733 6.39817C7.41902 6.64417 7.31545 6.87731 7.13849 7.04839C6.96153 7.21947 6.72502 7.31511 6.47888 7.31511C6.23274 7.31511 5.99622 7.21947 5.81926 7.04839C5.6423 6.87731 5.53873 6.64417 5.53042 6.39817C5.52983 6.18723 5.59993 5.98218 5.72953 5.81576C5.85914 5.64934 6.04076 5.53114 6.24542 5.48004ZM2.5415 5.4535C3.06475 5.4535 3.48996 5.87925 3.48996 6.40196C3.48996 6.92467 3.06475 7.35042 2.54204 7.35042C2.01933 7.35042 1.59304 6.92521 1.59304 6.4025C1.59304 5.87979 2.01879 5.4535 2.5415 5.4535ZM11.2965 8.71704C11.2536 8.95784 11.1582 9.18623 11.0171 9.38594C10.8759 9.58565 10.6924 9.75175 10.4796 9.87242C10.069 10.1097 9.56475 10.185 9.03392 10.2602C8.73545 10.2985 8.43899 10.3511 8.14558 10.4179C7.36288 10.6102 6.6105 10.9866 5.88033 11.3479C4.9465 11.8105 4.06575 12.2471 3.24946 12.2471C2.83087 12.2497 2.42229 12.1192 2.08271 11.8744C1.2545 11.3024 1.29567 10.2299 1.39371 9.64275C1.48417 9.09296 1.73604 8.57783 1.97708 8.08437C1.99225 8.05458 2.00363 8.02804 2.01879 7.99771C2.10113 8.02804 2.18779 8.05079 2.27825 8.06596C2.13525 8.86383 2.5415 9.68771 3.33233 10.0945L3.47533 10.1698L3.62917 10.1135C4.28783 9.88 4.89775 9.49975 5.43617 8.99167C5.73349 8.71443 5.99629 8.40234 6.21888 8.06217C6.30554 8.07679 6.39221 8.08058 6.47888 8.08058C6.85148 8.07972 7.21333 7.95562 7.50805 7.72763C7.80276 7.49964 8.01377 7.18056 8.10821 6.82012H8.74033C8.83415 7.18111 9.04515 7.50074 9.34023 7.72886C9.63531 7.95699 9.99777 8.0807 10.3708 8.08058C10.6827 8.08058 10.972 7.99392 11.2212 7.84767C11.3187 8.12933 11.349 8.42346 11.2965 8.71704Z"
      fill="currentColor" />
  </g>
  <defs>
    <clipPath id="clip0_43_798">
      <rect width="13" height="13" fill="white" />
    </clipPath>
  </defs>
</svg>