<svg width="14" height="13" viewBox="0 0 14 13" fill="none" color="inherit" xmlns="http://www.w3.org/2000/svg">
  <g clip-path="url(#clip0_43_207)">
    <path
      d="M13.0243 7.23451L12.3865 5.32189L11.1255 1.52751C11.1106 1.48455 11.0826 1.44734 11.0454 1.42111C11.0083 1.39488 10.9638 1.38095 10.9183 1.38126C10.873 1.38112 10.8287 1.39513 10.7917 1.42135C10.7547 1.44757 10.7268 1.48468 10.712 1.52751L9.45095 5.31945H5.26251L4.00151 1.5267C3.98659 1.48395 3.95867 1.44695 3.92166 1.42087C3.88465 1.39478 3.84041 1.38094 3.79514 1.38126C3.74977 1.38099 3.70545 1.39496 3.66843 1.4212C3.63141 1.44743 3.60355 1.48461 3.58876 1.52751L2.32939 5.31945L1.69239 7.23451C1.6642 7.31984 1.66422 7.41197 1.69247 7.49729C1.72071 7.5826 1.77566 7.65655 1.8492 7.7082L7.35795 11.6179L12.8651 7.7082C12.9389 7.65679 12.9943 7.58298 13.023 7.49768C13.0517 7.41237 13.0521 7.3201 13.0243 7.23451Z"
      fill="currentColor" />
    <path d="M7.35715 11.6155L9.45177 5.31863H5.26334L7.35715 11.6155Z" fill="currentColor" />
    <path d="M7.35714 11.6155L5.2617 5.31863H2.3302L7.35714 11.6155Z" fill="white" />
    <path
      d="M2.32777 5.32108L1.69077 7.2337C1.66258 7.31903 1.66261 7.41116 1.69085 7.49647C1.71909 7.58179 1.77405 7.65574 1.84758 7.70739L7.35715 11.6188L2.32777 5.32189V5.32108Z"
      fill="currentColor" />
    <path
      d="M2.32941 5.32107H5.26416L4.00153 1.52913C3.98664 1.4863 3.95875 1.44918 3.92176 1.42297C3.88476 1.39675 3.8405 1.38273 3.79516 1.38288C3.74967 1.38256 3.70523 1.3965 3.66807 1.42273C3.63092 1.44896 3.6029 1.48617 3.58797 1.52913L2.32941 5.32107Z"
      fill="currentColor" />
    <path d="M7.35715 11.6155L9.45177 5.31863H12.3881L7.35715 11.6155Z" fill="white" />
    <path
      d="M12.3865 5.32108L13.0227 7.2337C13.051 7.31902 13.0511 7.4112 13.0228 7.49654C12.9946 7.58188 12.9395 7.65583 12.8659 7.70739L7.35715 11.6155L12.3849 5.32108H12.3865Z"
      fill="currentColor" />
    <path
      d="M12.3865 5.32107H9.4534L10.7136 1.52913C10.7284 1.4861 10.7564 1.44883 10.7936 1.42258C10.8308 1.39633 10.8753 1.38245 10.9208 1.38288C11.0142 1.38288 11.0971 1.4422 11.1272 1.52913L12.3881 5.32107H12.3865Z"
      fill="currentColor" />
  </g>
  <defs>
    <clipPath id="clip0_43_207">
      <rect width="13" height="13" fill="white" transform="translate(0.857147)" />
    </clipPath>
  </defs>
</svg>