<svg width="14" height="13" viewBox="0 0 14 13" fill="none" color="inherit" xmlns="http://www.w3.org/2000/svg">
  <path
    d="M7.3572 0C3.76724 0 0.857147 2.91014 0.857147 6.50005C0.857147 10.09 3.76724 13 7.3572 13C10.9471 13 13.8571 10.09 13.8571 6.50005C13.8571 2.91014 10.9471 0 7.3572 0ZM7.3572 11.9325C4.36168 11.9325 1.92472 9.4955 1.92472 6.50005C1.92472 3.50466 4.3617 1.06758 7.3572 1.06758C10.3526 1.06758 12.7896 3.50466 12.7896 6.50005C12.7896 9.4955 10.3526 11.9325 7.3572 11.9325ZM11.3731 5.23048C11.3724 5.22542 11.3711 5.22056 11.3703 5.21549C11.3686 5.20572 11.3668 5.19598 11.3643 5.18649C11.3628 5.18077 11.3607 5.1753 11.3589 5.1698C11.3562 5.16133 11.3534 5.15288 11.35 5.14464C11.3476 5.13894 11.3449 5.13324 11.3423 5.12775C11.3386 5.11989 11.3349 5.11231 11.3305 5.10493C11.3274 5.09941 11.324 5.09412 11.3207 5.08885C11.3161 5.08165 11.3113 5.07466 11.3061 5.06791C11.3023 5.06283 11.2983 5.05779 11.2943 5.05288C11.2888 5.04657 11.2831 5.04021 11.277 5.03431C11.2725 5.02965 11.268 5.02502 11.2633 5.02077C11.2569 5.01507 11.2504 5.00955 11.2437 5.00431C11.2386 5.00029 11.2335 4.99627 11.2281 4.99246C11.2261 4.99119 11.2243 4.98951 11.2224 4.98821L7.54871 2.5391C7.43263 2.46173 7.28156 2.46173 7.1655 2.5391L3.49185 4.98821C3.48994 4.98951 3.48813 4.99119 3.48615 4.99246C3.48073 4.99625 3.47567 5.00029 3.47061 5.00431C3.46384 5.00955 3.45727 5.0151 3.45107 5.02077C3.44618 5.02502 3.44176 5.02968 3.43723 5.03431C3.4312 5.04021 3.42552 5.04657 3.42011 5.05288C3.41598 5.05776 3.41197 5.06283 3.40817 5.06791C3.40311 5.07468 3.3982 5.08165 3.39367 5.08885C3.39019 5.09412 3.38693 5.09941 3.38375 5.10493C3.3795 5.11231 3.37571 5.11991 3.372 5.12775C3.36935 5.13324 3.36663 5.13894 3.36429 5.14464C3.36091 5.15288 3.35816 5.16133 3.35539 5.1698C3.35358 5.1753 3.3516 5.18079 3.35002 5.18649C3.34745 5.19598 3.34577 5.20572 3.34396 5.21549C3.34315 5.22056 3.34185 5.22542 3.34124 5.23048C3.33921 5.24528 3.33806 5.26029 3.33806 5.27553V7.72465C3.33806 7.73986 3.33921 7.75487 3.34124 7.7699C3.34188 7.77476 3.34315 7.77983 3.34396 7.78466C3.34577 7.79443 3.34745 7.80415 3.35002 7.81366C3.35162 7.81939 3.35361 7.82486 3.35539 7.83035C3.35816 7.8388 3.36091 7.84727 3.36429 7.85571C3.36663 7.86146 3.36935 7.86693 3.372 7.87243C3.37571 7.88024 3.3795 7.88782 3.38375 7.89545C3.38693 7.90077 3.39016 7.90601 3.39367 7.9113C3.39823 7.9185 3.40311 7.9255 3.40817 7.93226C3.41197 7.93753 3.41598 7.94236 3.42011 7.94725C3.42552 7.95358 3.43122 7.95994 3.43723 7.96587C3.44178 7.9705 3.44621 7.97513 3.45107 7.97933C3.45727 7.9851 3.46384 7.99057 3.47061 7.99587C3.47567 7.99988 3.48073 8.00388 3.48615 8.0077C3.48813 8.00897 3.48994 8.01065 3.49185 8.01192L7.1655 10.4611C7.22353 10.4997 7.29037 10.5192 7.35717 10.5192C7.42385 10.5192 7.49068 10.4997 7.54871 10.4611L11.2224 8.01192C11.2243 8.01065 11.2261 8.00897 11.2281 8.0077C11.2335 8.0039 11.2386 7.99988 11.2437 7.99587C11.2504 7.99057 11.2569 7.98508 11.2633 7.97933C11.268 7.97513 11.2725 7.97048 11.277 7.96587C11.2831 7.95994 11.2888 7.95358 11.2943 7.94725C11.2983 7.94239 11.3023 7.93753 11.3061 7.93226C11.3113 7.92547 11.3161 7.9185 11.3207 7.9113C11.324 7.90601 11.3274 7.90077 11.3305 7.89545C11.3349 7.88782 11.3386 7.88021 11.3423 7.87243C11.3449 7.86693 11.3476 7.86144 11.35 7.85571C11.3534 7.84727 11.3561 7.8388 11.3589 7.83035C11.3607 7.82486 11.3628 7.81936 11.3643 7.81366C11.3668 7.80415 11.3686 7.79443 11.3703 7.78466C11.3711 7.77983 11.3724 7.77476 11.3731 7.7699C11.375 7.75487 11.3762 7.73983 11.3762 7.72465V5.27553C11.3762 5.26029 11.375 5.24528 11.3731 5.23048ZM7.70258 3.47186L10.4088 5.27591L9.20002 6.08461L7.70258 5.0829V3.47186ZM7.01174 3.47186V5.0829L5.51435 6.08461L4.30543 5.27591L7.01174 3.47186ZM4.02892 5.92205L4.89307 6.50005L4.02892 7.07811V5.92205ZM7.01174 9.52826L4.30543 7.72416L5.51435 6.91572L7.01174 7.91723V9.52826ZM7.3572 7.31719L6.1355 6.50005L7.3572 5.68291L8.57879 6.50005L7.3572 7.31719ZM7.70258 9.52826V7.91723L9.20002 6.91572L10.4088 7.72416L7.70258 9.52826ZM10.6854 7.07811L9.82132 6.50005L10.6854 5.92205V7.07811Z"
    fill="currentColor" />
</svg>