<svg width="14" height="13" viewBox="0 0 14 13" fill="none" color="inherit" xmlns="http://www.w3.org/2000/svg">
  <g clip-path="url(#clip0_117_1195)">
    <path fill-rule="evenodd" clip-rule="evenodd"
      d="M0.694305 0H13.6943V13H0.694305V0ZM10.6321 10.8981C10.0296 10.8981 9.68884 10.5838 9.427 10.1563L8.43423 10.7331C8.79287 11.4416 9.52586 11.9823 10.6604 11.9823C11.8206 11.9823 12.6846 11.3798 12.6846 10.2799C12.6846 9.25974 12.0986 8.80593 11.0607 8.36084L10.7553 8.23003C10.2312 8.00307 10.0041 7.85471 10.0041 7.48822C10.0041 7.19171 10.2309 6.9647 10.5888 6.9647C10.9396 6.9647 11.1655 7.11263 11.3749 7.48822L12.3262 6.87743C11.9238 6.16964 11.3655 5.89929 10.5888 5.89929C9.4978 5.89929 8.7997 6.5968 8.7997 7.51297C8.7997 8.50758 9.38529 8.97807 10.2669 9.35361L10.5722 9.48464C11.1294 9.72833 11.4616 9.8767 11.4616 10.2956C11.4616 10.6452 11.1382 10.8981 10.6321 10.8981ZM5.89781 10.8905C5.47809 10.8905 5.30353 10.6026 5.11162 10.2621L4.11722 10.8642C4.40529 11.4739 4.97172 11.98 5.94981 11.98C7.03229 11.98 7.77394 11.4043 7.77394 10.1394V5.96906H6.55238V10.1229C6.55238 10.7335 6.29915 10.8905 5.89781 10.8905Z"
      fill="currentColor" />
  </g>
  <defs>
    <clipPath id="clip0_117_1195">
      <rect x="0.694305" width="13" height="13" rx="2" fill="white" />
    </clipPath>
  </defs>
</svg>