<svg width="12" height="13" viewBox="0 0 12 13" fill="none" color="inherit" xmlns="http://www.w3.org/2000/svg">
  <g clip-path="url(#clip0_147_1205)">
    <path
      d="M6.05365 0L0 2.19884L0.940129 10.1545L6.05365 13L11.1683 10.1389L11.9834 2.10455L6.05365 0ZM9.41468 6.78399L7.9964 7.66609L9.41468 8.3691L6.93575 9.91125L2.6703 7.80558L4.11146 6.9324L2.6703 6.22159L4.12094 5.34227L2.67811 4.64429L5.07725 3.11609L9.41468 5.18047L7.98021 6.07318L9.41468 6.78399Z"
      fill="currentColor" />
    <path
      d="M9.3678 5.18102L7.93333 6.07205L6.90784 6.70922L4.07462 5.34059L2.629 4.64261L5.03037 3.11441L9.3678 5.18102Z"
      stroke="currentColor" stroke-width="0.2" />
    <path
      d="M4.07852 5.34225L2.67697 6.2344L4.10697 6.92457L4.12259 6.93238L6.95581 8.30101L7.95787 7.67835L7.98131 7.66384L9.41577 6.77281L7.93835 6.06869"
      stroke="currentColor" stroke-width="0.2" />
    <path
      d="M7.95062 7.67502L7.95787 7.67837L9.41577 8.373L7.98131 9.26403L6.95581 9.9012L4.12259 8.53257L2.67697 7.83459L4.10697 6.92459"
      stroke="currentColor" stroke-width="0.2" />
  </g>
  <defs>
    <clipPath id="clip0_147_1205">
      <rect width="11.9834" height="13" fill="white" />
    </clipPath>
  </defs>
</svg>