<svg width="14" height="14" viewBox="0 0 14 14" fill="none" color="inherit" xmlns="http://www.w3.org/2000/svg">
  <path
    d="M5.38809 7.68465C5.57107 7.86802 5.57107 8.1647 5.38809 8.34768L1.60207 12.1341H3.78602C4.04556 12.1341 4.25496 12.3442 4.25496 12.6038C4.25496 12.8633 4.04556 13.0727 3.78602 13.0727H0.469328C0.210164 13.0724 0 12.863 0 12.6038V9.28634C0 9.02756 0.210164 8.81739 0.469328 8.81739C0.728875 8.81739 0.939039 9.02756 0.939039 9.28634V11.4718L4.72505 7.68465C4.81655 7.59354 4.93675 7.54722 5.05619 7.54722C5.17601 7.54722 5.29621 7.59354 5.38809 7.68465ZM11.7807 0.927246H8.46398C8.20444 0.927246 7.99466 1.13664 7.99466 1.39619C7.99466 1.65574 8.20444 1.8659 8.46398 1.8659H10.6479L6.81023 5.70398C6.62687 5.88735 6.62687 6.18403 6.81023 6.36701C6.99322 6.55038 7.2899 6.55038 7.47327 6.36701L11.3113 2.52855V4.71326C11.3113 4.97204 11.5215 5.18221 11.7811 5.18221C12.0402 5.18221 12.2504 4.97204 12.2504 4.71326V1.39581C12.25 1.13664 12.0398 0.927246 11.7807 0.927246Z"
    fill="currentColor" />
</svg>